<?xml version="1.0" standalone="no"?>
<!DOCTYPE svg PUBLIC "-//W3C//DTD SVG 20010904//EN"
 "http://www.w3.org/TR/2001/REC-SVG-20010904/DTD/svg10.dtd">
<svg version="1.0" xmlns="http://www.w3.org/2000/svg"
 width="554.000000pt" height="554.000000pt" viewBox="0 0 554.000000 554.000000"
 preserveAspectRatio="xMidYMid meet">
<metadata>
Created by potrace 1.14, written by Peter Selinger 2001-2017
</metadata>
<g transform="translate(0.000000,554.000000) scale(0.100000,-0.100000)"
fill="#000000" stroke="none">
<path d="M3415 5289 c-85 -8 -163 -18 -190 -25 -95 -23 -261 -81 -285 -98 -8
-6 -33 -20 -55 -31 -62 -30 -215 -135 -215 -147 0 -6 -3 -8 -6 -5 -9 9 -172
-159 -337 -348 -77 -88 -152 -174 -167 -191 -16 -17 -93 -73 -172 -125 -182
-121 -198 -131 -288 -173 -96 -46 -105 -52 -103 -64 2 -6 -7 -9 -18 -7 -17 4
-19 2 -8 -11 10 -12 9 -13 -3 -9 -17 7 -32 -20 -22 -38 5 -9 3 -9 -6 0 -10 9
-16 9 -26 -2 -8 -7 -14 -16 -14 -20 0 -4 -14 -20 -30 -37 -17 -16 -30 -38 -30
-48 0 -10 -4 -20 -9 -22 -13 -5 -83 -236 -89 -291 -3 -28 -10 -51 -18 -54 -8
-3 -14 -19 -14 -37 -1 -44 -22 -117 -43 -149 -9 -14 -17 -33 -17 -41 0 -8 -9
-24 -21 -34 -21 -20 -36 -102 -19 -102 6 0 10 -27 10 -61 0 -33 4 -68 9 -78 6
-10 13 -80 17 -157 6 -129 5 -142 -14 -180 -11 -22 -38 -54 -59 -71 -21 -17
-58 -50 -83 -72 -25 -23 -55 -44 -68 -47 -12 -3 -22 -12 -22 -19 0 -7 -20 -19
-45 -26 -25 -7 -45 -19 -45 -26 0 -8 -11 -18 -25 -23 -14 -5 -25 -16 -25 -25
0 -9 -11 -20 -24 -24 -13 -5 -26 -17 -29 -25 -4 -9 -12 -16 -19 -16 -22 -1
-58 -37 -73 -74 -9 -20 -22 -36 -30 -36 -8 0 -19 -8 -24 -18 -5 -10 -32 -24
-63 -31 -29 -8 -59 -18 -65 -23 -7 -6 -24 -7 -37 -4 -13 3 -26 3 -28 -2 -7
-16 -68 -52 -88 -52 -16 0 -20 -4 -15 -19 3 -10 1 -37 -4 -60 -5 -25 -5 -43 0
-47 13 -7 0 -75 -17 -95 -8 -8 -14 -22 -14 -29 0 -12 -69 -163 -103 -225 -47
-87 -87 -179 -87 -199 0 -13 -8 -44 -18 -68 -10 -24 -26 -92 -36 -153 -27
-168 -66 -386 -77 -421 -5 -17 -9 -53 -9 -82 0 -41 4 -54 22 -66 12 -9 30 -16
39 -16 25 0 47 102 60 280 12 162 24 217 84 390 40 112 50 130 71 130 15 0 20
-45 5 -54 -5 -3 -11 -20 -14 -38 -3 -18 -14 -67 -25 -108 -27 -103 -49 -264
-62 -455 -6 -88 -16 -164 -21 -169 -15 -17 -10 -56 11 -78 13 -15 20 -36 20
-64 0 -24 5 -46 12 -50 17 -10 38 25 38 63 0 19 9 46 20 61 23 31 38 128 70
464 5 54 13 106 18 115 5 10 12 50 15 88 12 131 53 213 88 178 10 -10 -6 -148
-21 -193 -5 -14 -12 -50 -16 -81 -6 -53 -4 -58 22 -82 30 -29 30 5 0 -291 -8
-77 -13 -143 -10 -148 9 -14 42 -9 48 8 3 9 6 31 6 50 0 24 5 34 15 34 12 0
15 -13 15 -60 0 -51 3 -61 23 -71 32 -17 37 -28 37 -92 0 -48 4 -62 25 -83 17
-17 34 -24 53 -22 l27 3 0 105 c0 58 -6 164 -14 237 -10 91 -12 189 -8 320 6
203 19 285 50 320 17 19 21 39 22 106 2 88 16 139 52 199 13 21 23 42 23 48 0
5 7 10 15 10 12 0 15 -19 15 -112 0 -62 -4 -129 -10 -148 -5 -19 -12 -161 -14
-315 -3 -154 -6 -291 -8 -305 -2 -19 1 -25 17 -25 17 0 22 10 29 58 8 49 12
57 31 57 11 0 27 -6 33 -12 18 -18 34 9 27 42 -28 126 -35 198 -37 396 -2 206
-1 223 21 279 12 33 25 70 28 83 9 38 44 27 78 -24 31 -46 42 -54 135 -99 40
-20 65 -41 90 -77 19 -27 44 -62 56 -77 12 -14 29 -41 38 -58 25 -49 94 -116
172 -166 65 -41 342 -147 386 -147 10 0 42 -9 73 -21 l56 -21 -4 -126 c-5
-127 -16 -281 -36 -487 -6 -60 -11 -116 -11 -122 0 -10 363 -13 1780 -13
l1781 0 -6 38 c-4 20 -12 60 -20 87 -13 53 -29 131 -45 230 -38 232 -52 322
-60 405 -15 150 -21 180 -50 270 -35 107 -60 223 -60 275 0 22 -14 78 -31 125
-17 47 -40 111 -50 144 -11 32 -27 74 -36 93 -14 31 -15 41 -4 77 7 22 17 111
22 196 17 282 31 444 44 510 25 118 36 733 16 823 -6 27 -9 52 -6 57 5 8 -5
36 -60 155 -12 28 -42 93 -66 145 -60 131 -219 451 -264 530 -21 36 -49 85
-63 110 -13 25 -31 52 -38 61 -8 8 -14 20 -14 25 -1 21 -121 162 -171 202 -30
23 -103 85 -164 137 -183 155 -283 224 -380 260 -27 10 -54 21 -60 25 -16 11
-115 39 -174 50 -115 22 -272 29 -386 19z"/>
<path d="M950 1216 c0 -8 5 -18 10 -21 6 -3 10 3 10 14 0 12 -4 21 -10 21 -5
0 -10 -6 -10 -14z"/>
</g>
</svg>
