<?xml version="1.0" standalone="no"?>
<!DOCTYPE svg PUBLIC "-//W3C//DTD SVG 20010904//EN"
 "http://www.w3.org/TR/2001/REC-SVG-20010904/DTD/svg10.dtd">
<svg version="1.0" xmlns="http://www.w3.org/2000/svg"
 width="554.000000pt" height="506.000000pt" viewBox="0 0 554.000000 506.000000"
 preserveAspectRatio="xMidYMid meet">
<metadata>
Created by potrace 1.16, written by Peter Selinger 2001-2019
</metadata>
<g transform="translate(0.000000,506.000000) scale(0.100000,-0.100000)"
fill="#000000" stroke="none">
<path d="M3335 5049 c-292 -40 -568 -178 -774 -388 -81 -82 -302 -330 -394
-440 -39 -47 -346 -249 -473 -311 -57 -29 -104 -56 -104 -61 0 -5 -9 -9 -19
-9 -12 0 -21 -9 -25 -25 -4 -15 -13 -25 -25 -25 -13 0 -20 -10 -24 -30 -4 -16
-12 -30 -19 -30 -13 0 -38 -44 -38 -66 0 -6 -6 -14 -13 -17 -16 -6 -77 -201
-88 -282 -4 -33 -13 -85 -19 -115 -5 -30 -14 -75 -18 -100 -5 -25 -21 -73 -36
-108 -33 -77 -35 -145 -11 -358 l17 -150 -30 -60 c-32 -62 -58 -91 -133 -143
-26 -18 -66 -56 -90 -83 -85 -100 -294 -293 -359 -332 -83 -51 -112 -75 -156
-133 -24 -32 -53 -69 -64 -83 -11 -14 -20 -35 -20 -47 0 -13 -6 -23 -12 -23
-22 -1 -81 -85 -138 -197 -105 -206 -140 -302 -165 -454 -9 -57 -25 -144 -35
-194 -23 -113 -44 -265 -44 -330 -1 -39 3 -50 16 -53 34 -7 40 24 68 318 5 58
18 134 29 170 27 93 78 240 85 247 3 4 6 16 6 28 0 41 90 195 113 195 12 0 5
-40 -24 -140 -84 -294 -131 -552 -127 -701 1 -35 -4 -101 -12 -146 -13 -77
-12 -84 5 -103 24 -26 36 -25 59 7 14 19 21 57 30 152 6 69 14 131 18 136 4 6
9 51 13 100 3 50 12 119 20 155 7 36 19 99 25 140 18 110 36 157 75 197 19 20
35 44 35 53 0 19 27 46 37 37 3 -4 0 -26 -7 -49 -6 -24 -19 -86 -26 -138 -27
-175 -32 -205 -39 -227 -6 -19 -2 -25 21 -33 16 -6 32 -17 36 -23 10 -16 10
-65 -1 -85 -12 -25 -22 -162 -10 -162 5 0 9 15 9 33 0 17 4 38 9 45 13 21 19
-15 26 -158 7 -121 8 -126 35 -150 24 -21 30 -35 35 -90 6 -68 28 -99 69 -100
15 0 17 6 13 38 -7 45 -12 137 -22 427 -10 272 4 441 40 495 18 28 24 54 29
130 6 90 9 101 62 207 35 69 62 113 71 113 13 0 14 -8 9 -43 -19 -117 -28
-220 -32 -402 -11 -426 -12 -525 -4 -520 5 3 14 30 20 61 12 59 30 75 61 55
24 -14 24 -5 3 86 -12 51 -16 127 -17 298 -2 238 -2 235 45 368 23 65 48 75
72 29 25 -47 74 -92 128 -117 29 -14 58 -25 63 -25 10 0 113 -138 168 -225 74
-119 207 -191 507 -275 166 -47 170 -51 170 -164 0 -129 -31 -552 -46 -623
l-4 -23 1770 0 c1682 0 1771 1 1766 18 -6 20 -52 231 -67 312 -31 166 -39 215
-48 315 -20 199 -33 287 -51 339 -28 82 -68 256 -75 326 -4 46 -24 111 -67
219 l-62 154 12 96 c7 53 21 218 32 366 11 149 26 306 34 350 8 44 17 145 20
225 3 80 9 199 12 266 4 73 1 176 -6 260 l-13 139 -74 165 c-108 238 -312 638
-389 760 -94 151 -138 205 -206 258 -34 26 -116 94 -182 151 -289 249 -483
327 -831 336 -88 2 -191 0 -230 -6z m379 -20 c22 -6 45 -17 52 -24 11 -11 8
-15 -19 -26 -23 -10 -73 -13 -184 -11 -83 1 -162 -2 -175 -7 -44 -17 -71 26
-38 59 18 18 34 20 173 20 83 0 170 -5 191 -11z"/>
</g>
</svg>
